<?xml version="1.0" encoding="utf-8"?>
<!-- Generator: Adobe Illustrator 16.0.0, SVG Export Plug-In . SVG Version: 6.00 Build 0)  -->
<!DOCTYPE svg PUBLIC "-//W3C//DTD SVG 1.1//EN" "http://www.w3.org/Graphics/SVG/1.1/DTD/svg11.dtd">
<svg version="1.1" id="Layer_1" xmlns="http://www.w3.org/2000/svg" xmlns:xlink="http://www.w3.org/1999/xlink" x="0px" y="0px"
                                         width="1000px" height="1000px" viewBox="0 0 1000 1000" enable-background="new 0 0 1000 1000" xml:space="preserve">
                                    <g>
                                    <path id="aw-ball-big" fill-rule="evenodd" clip-rule="evenodd" fill="#fff" d="M946.598,486.012c-1.158,254.873-156.049,439.36-368.231,478.498
                                          c-238.418,43.968-473.861-118.42-517.624-357.607c-4.579-25.086-6.481-50.856-7.288-76.379
                                          c-1.504-47.254,30.175-82.083,73.973-83.481c43.103-1.372,77.325,33.167,78.261,80.014c1.28,63.604,20.066,121.371,58.437,171.921
                                          c53.508,70.486,124.581,109.91,213.315,117.443c152.717,12.964,297.185-98.834,314.426-262.129
                                          c17.71-167.67-106.638-306.717-260.232-322.382c-10.758-1.089-21.568-2.12-32.371-2.444c-44.437-1.341-75.828-33.562-75.722-78.057
                                          c0.103-40.874,34.886-75.252,77.745-74.615c113.405,1.691,213.817,38.98,297.692,115.662
                                          C896.632,281.738,945.739,393.523,946.598,486.012z"/>
                                    <path display="none" fill-rule="evenodd" clip-rule="evenodd" fill="#E95525" d="M637.447,658.257
                                          c8.318,22.012,18.51,38.872,19.987,56.466c0.997,11.89-8.231,26.485-16.659,36.826c-9.973,12.264-23.469,14.685-36.209,0.385
                                          c-26.477-29.675-54.833-40.75-99.052-35.706c-110.377,12.604-201.409-66.946-219.531-180.638
                                          c-15.27-95.829,54.611-196.684,154.636-223.204c84.01-22.274,176.404,14.539,224.17,89.307
                                          c47.582,74.503,41.864,172.285-14.109,240.756C645.316,649.011,639.788,655.436,637.447,658.257z M609.093,511.871
                                          c-0.065-65.915-51.623-117.67-117.503-117.926c-67.478-0.262-120.36,52.98-119.856,120.666
                                          c0.473,63.639,55.2,116.503,120.325,116.237C556.857,630.601,609.145,577.439,609.093,511.871z"/>
                                    <path id="aw-ball" fill-rule="evenodd" clip-rule="evenodd" fill="#fff" d="M357.294,161.92c-0.255,42.473-33.654,76.13-75.568,76.212
                                          c-42.279,0.068-77.134-33.957-77.08-75.238c0.065-42.634,34.937-77.676,76.96-77.332C323.61,85.905,357.57,120.158,357.294,161.92z
                                          "/>
                                    <path  id="aw-ball" fill-rule="evenodd" clip-rule="evenodd" fill="#fff" d="M212.499,308.277c0.269-30.294,24.184-53.556,54.768-53.293
                                           c29.515,0.255,54.315,25.784,53.467,55.05c-0.807,28.259-26.111,52.875-54.502,53.025
                                           C236.972,363.209,212.236,337.986,212.499,308.277z"/>
                                    <path  id="aw-ball" fill-rule="evenodd" clip-rule="evenodd" fill="#fff" d="M146.849,294.41c24.225-0.371,46.044,21.407,46.33,46.201
                                           c0.269,25.873-19.211,45.431-45.652,45.839c-26.005,0.398-46.38-19.422-46.398-45.107
                                           C101.108,316.291,122.052,294.792,146.849,294.41z"/>
                                    <path display="none" fill-rule="evenodd" clip-rule="evenodd" fill="#FFFFFF" d="M636.719,536.361
                                          c0.062,71.709-57.123,129.844-127.991,130.126c-71.229,0.289-131.085-57.535-131.599-127.13
                                          c-0.558-74.027,57.283-132.256,131.083-131.97C580.256,407.659,636.654,464.265,636.719,536.361z"/>
                                    <path display="none" fill-rule="evenodd" clip-rule="evenodd" fill="#E95525" d="M662.622,533.83
                                          c0,95.113-77.101,172.22-172.218,172.22c-95.106,0-172.213-77.106-172.213-172.22c0-95.104,77.106-172.208,172.213-172.208
                                          C585.521,361.623,662.622,438.726,662.622,533.83z"/>
                                    <g display="none">
                                    <path display="inline" fill-rule="evenodd" clip-rule="evenodd" fill="#FFFFFF" d="M497.328,524.941
                                          c19.82-3.025,39.702-5.619,59.581-7.91c-0.021-21.308-0.014-42.612-0.014-63.934v-3.285h-59.517v3.243
                                          C497.379,477.02,497.44,500.976,497.328,524.941z"/>
                                    <path display="inline" fill-rule="evenodd" clip-rule="evenodd" fill="#FFFFFF" d="M334.117,561.063
                                          c5.776-1.616,11.546-3.195,17.343-4.781c19.426-5.257,38.919-10.202,58.516-14.695v-16.876c-1.236,0.541-2.192,0.997-3.169,1.433
                                          c-6.195,2.747-12.56,3.373-19.007,1.113c-10.592-3.696-16.362-15.872-13.07-27.309c3.359-11.621,15.436-18.857,27.023-16.155
                                          c9.694,2.219,16.753,11.566,16.815,22.162c0.064,11.227,0.126,22.445,0.201,33.646c19.804-4.407,39.682-8.355,59.724-11.675
                                          c-0.119-21.331-0.241-42.643-0.347-63.964c-0.967-1.535-1.885-3.036-2.788-4.592c-0.712-0.254-1.358-0.704-1.899-1.263
                                          c-2.642-1.351-5.007-3.281-7.124-5.494c-2.005-1.13-3.948-2.321-5.752-3.713c-0.62-0.331-1.229-0.78-1.824-1.386
                                          c-4.071-3.921-8.091-8.111-12.782-11.192c-21.747-14.296-45.846-17.21-70.531-11.334c-47.133,11.235-76.732,62.372-55.189,114.137
                                          C323.651,547.268,328.334,554.627,334.117,561.063z"/>
                                    <path display="inline" fill-rule="evenodd" clip-rule="evenodd" fill="#FFFFFF" d="M576.178,514.951
                                          c19.832-2.068,39.676-3.812,59.543-5.266c0-19.01-0.014-38.041-0.014-57.072v-2.825h-59.515v3.465
                                          C576.192,473.813,576.219,494.365,576.178,514.951z"/>
                                    <path display="inline" fill-rule="evenodd" clip-rule="evenodd" fill="#FFFFFF" d="M343.386,569.774
                                          c15.756,12.522,36.819,19.221,60.626,17.128c1.994-0.191,3.961-0.596,5.963-0.896v-33.396
                                          C387.66,557.84,365.491,563.691,343.386,569.774z"/>
                                    <path display="inline" fill-rule="evenodd" clip-rule="evenodd" fill="#FFFFFF" d="M576.137,525.653
                                          c-0.021,2.938-0.021,5.919-0.033,8.878c-0.028,4.158-0.719,8.435-1.917,12.399c-1.297,4.296-4.602,5.862-9.051,5.496
                                          c-3.799-0.339-6.335-2.545-7.186-6.837c-0.603-3.121-1.001-6.369-1.018-9.541c0-2.805,0-5.568-0.003-8.35
                                          c-19.949,2.24-39.855,4.895-59.687,7.951c-0.16,3.921-0.905,7.891-2.072,11.566c-1.277,4.152-4.786,5.682-9.238,5.2
                                          c-3.693-0.425-5.923-2.585-6.829-6.858c-0.34-1.593-0.531-3.268-0.538-4.895c-0.01-0.656-0.01-1.307-0.01-1.975
                                          c-17.704,3.04-35.325,6.444-52.841,10.308c-2.288,0.493-4.588,1.023-6.879,1.552c0.055,9.163,0.105,18.296,0.156,27.476
                                          c0.225-0.02,0.436-0.02,0.657-0.02c1.756,0,3.074,0.688,3.938,1.729c2.199,1.181,4.091,2.951,5.324,5.096
                                          c0.582,0.426,1.123,1.035,1.658,1.804c15.126,21.261,40.121,27.53,60.99,23.137c12.012-2.546,21.968-9.023,31.118-16.891
                                          c1.425-1.223,2.839-2.48,4.553-4.01c0.825,0.963,1.438,1.773,2.126,2.525c0.77,0.76,1.572,1.536,2.399,2.261
                                          c19.211,17.18,41.081,22.38,65.288,13.026c23.548-9.063,38.594-32.871,38.634-59.274c0.03-9.007,0.03-18.01,0.03-27.003
                                          C615.854,521.865,595.998,523.591,576.137,525.653z"/>
                                    </g>
                                    <g display="none">
                                    <rect id="XMLID_8_" x="641.61" y="508.124" display="inline" fill="#FFFFFF" width="12.858" height="12.39"/>
                                    <rect id="XMLID_7_" x="659.967" y="446.429" display="inline" fill="#FFFFFF" width="19.27" height="17.86"/>
                                    <rect id="XMLID_6_" x="641.61" y="467.952" display="inline" fill="#FFFFFF" width="17.884" height="18.34"/>
                                    <rect id="XMLID_5_" x="659.967" y="489.3" display="inline" fill="#FFFFFF" width="12.825" height="12.88"/>
                                    </g>
                                    <path  id="aw-ball"  fill-rule="evenodd" clip-rule="evenodd" fill="#fff" d="M117.086,198.449c16.437-0.251,31.253,14.609,31.444,31.534
                                           c0.184,17.655-13.037,30.999-30.981,31.274c-17.643,0.283-31.475-13.241-31.486-30.778
                                           C86.039,213.382,100.254,198.708,117.086,198.449z"/>
                                    </g>
                                    <path  id="aw-ball"  fill-rule="evenodd" clip-rule="evenodd" fill="#fff" d="M697.668,510.173c-1.009,54.062-19.688,100.896-55.578,140.954
                                           c-3.752,4.188-4.495,7.557-2.202,12.857c5.682,13.135,10.869,26.504,15.702,39.978c3.531,9.847,2.186,19.71-3.086,28.664
                                           c-3.934,6.684-8.211,13.281-13.166,19.226c-9.362,11.23-21.674,11.317-32.278,1.265c-8.516-8.072-16.724-16.706-26.238-23.437
                                           c-20.374-14.412-43.938-18.65-68.147-15.407c-85.892,11.508-159.336-28.896-199.81-100.371
                                           c-16.546-29.22-26.486-60.698-29.149-94.107c-2.599-32.606,3.748-63.963,18.209-93.271c29.932-60.666,77.24-100.886,143.229-117.29
                                           c45.446-11.297,89.932-5.943,132.038,14.23c63.746,30.541,102.775,80.92,116.511,150.372
                                           C696.057,485.744,696.396,498.051,697.668,510.173z M417.611,538.418c1.341,0,2.259,0.146,3.116-0.021
                                           c18.267-3.569,36.519-7.216,54.798-10.723c2.671-0.513,3.435-1.779,3.422-4.349c-0.101-19.719,0.034-39.439-0.275-59.152
                                           c-0.041-2.591-1.51-5.938-3.458-7.59c-8.922-7.567-18-15.004-27.487-21.844c-18.892-13.621-40.225-17.656-63.055-14.633
                                           c-25.455,3.372-45.887,15.307-59.99,36.881c-13.311,20.364-16.258,42.775-10.893,66.349c2.637,11.588,7.4,22.234,14.436,31.884
                                           c2.704,3.709,5.355,5.55,10.316,3.908c7.959-2.633,16.159-4.561,24.295-6.634c14.493-3.695,29.028-7.232,43.507-10.976
                                           c1.375-0.356,3.497-1.646,3.562-2.614c0.352-5.275,0.167-10.589,0.167-16.712c-3.173,1.068-5.567,1.903-7.979,2.683
                                           c-8.891,2.869-18.606-0.103-23.814-7.265c-5.451-7.495-5.468-18.234-0.041-25.788c5.567-7.749,15.167-11.196,23.777-8.541
                                           c8.701,2.685,14.803,10.94,14.945,20.348c0.147,9.778,0.205,19.557,0.334,29.336C417.319,534.749,417.497,536.529,417.611,538.418z
                                           M636.584,518.268c-3.153,0-5.602-0.185-8.014,0.028c-15.664,1.384-31.323,2.797-46.974,4.318c-6.298,0.613-6.069,0.76-6.473,7.028
                                           c-0.331,5.141-1.012,10.289-1.993,15.346c-0.665,3.425-3.613,5.077-6.842,5.069c-3.416-0.007-6.304-1.732-7.091-5.379
                                           c-0.704-3.256-1.097-6.602-1.342-9.93c-0.219-2.967-0.046-5.963-0.046-8.961c-1.543-0.137-2.313-0.344-3.044-0.249
                                           c-18.764,2.43-37.528,4.851-56.267,7.462c-0.986,0.138-2.171,1.799-2.52,2.973c-0.822,2.76-0.977,5.718-1.801,8.476
                                           c-1.061,3.55-3.598,5.831-7.418,5.544c-3.635-0.273-6.289-2.252-7.002-6.141c-0.432-2.354-0.846-4.715-1.274-7.112
                                           c-0.851-0.077-1.475-0.274-2.037-0.165c-18.878,3.665-37.756,7.327-56.603,11.149c-0.875,0.178-2.058,1.815-2.074,2.79
                                           c-0.129,7.945-0.068,15.896,0.09,23.842c0.021,1.007,0.705,2.238,1.467,2.953c3.721,3.487,8.213,6.34,11.27,10.313
                                           c15.719,20.429,45.847,29.162,69.704,18.771c9.506-4.141,18.019-10.563,27.169-16.059c4.255,3.209,9.158,7.319,14.456,10.837
                                           c27.672,18.371,67.749,8.77,85.048-19.625C639.041,561.739,636.529,540.21,636.584,518.268z M496.519,523.758
                                           c1.043,0.073,1.646,0.215,2.221,0.14c18.302-2.397,36.59-4.892,54.906-7.168c3.425-0.426,4.159-2.01,4.144-5.119
                                           c-0.102-19.722-0.194-39.45,0.056-59.17c0.06-4.628-1.585-5.587-5.811-5.537c-16.816,0.203-33.639,0.197-50.455,0.002
                                           c-4.113-0.047-5.542,1.075-5.503,5.374c0.196,22.168,0.083,44.34,0.106,66.511C496.184,520.416,496.397,522.041,496.519,523.758z
                                           M575.947,513.407c0.635,0.223,0.928,0.429,1.201,0.405c18.32-1.683,36.625-3.556,54.967-4.947c4.003-0.303,4.686-1.676,4.655-5.202
                                           c-0.146-17.104-0.059-34.21-0.077-51.316c-0.002-1.475-0.169-2.949-0.264-4.5c-20.438,0-40.477,0-60.482,0
                                           C575.947,470.007,575.947,491.77,575.947,513.407z M341.758,567.386c0.771,1.431,0.847,1.776,1.062,1.941
                                           c19.23,14.754,41.037,19.376,64.721,16.161c1.018-0.138,2.424-2.496,2.467-3.858c0.241-7.637,0.118-15.285,0.118-22.93
                                           c0.001-2.683,0.001-5.365,0.001-8.98C386.891,555.724,364.558,561.494,341.758,567.386z M670.06,443.841c-0.609,0-1.218,0-1.827,0
                                           c-9.037,0-9.037,0-9.038,8.843c0,10.545,0,10.587,12.437,10.533c10.804-0.045,8.91,0.892,9.015-8.908
                                           C680.757,443.841,680.671,443.841,670.06,443.841z M660.543,485.195c0-6.273,0.131-11.892-0.13-17.493
                                           c-0.044-0.917-1.769-2.449-2.789-2.51c-4.552-0.276-9.145-0.308-13.69,0.014c-1.086,0.077-2.863,1.801-2.932,2.858
                                           c-0.314,4.854-0.232,9.743-0.04,14.609c0.034,0.866,1.243,2.385,1.952,2.41C648.645,485.281,654.386,485.195,660.543,485.195z
                                           M666.561,501.294c7.326-0.183,7.402,1.636,7.406-7.282c0.003-7.573,0.005-7.577-7.156-7.575c-8.871,0.003-7.584-0.161-7.605,7.098
                                           C659.178,502.242,658.458,501.21,666.561,501.294z M647.943,519.644c7.617-0.193,7.657,1.654,7.672-7.042
                                           c0.012-7.185,0.004-7.219-6.649-7.181c-8.616,0.05-8.112-0.993-8.128,7.078C640.824,519.642,640.835,519.642,647.943,519.644z"/>
                                    </svg>

