<?xml version="1.0" encoding="utf-8"?>
<!-- Generator: Adobe Illustrator 16.0.0, SVG Export Plug-In . SVG Version: 6.00 Build 0)  -->
<!DOCTYPE svg PUBLIC "-//W3C//DTD SVG 1.1//EN" "http://www.w3.org/Graphics/SVG/1.1/DTD/svg11.dtd">
<svg version="1.1" xmlns="http://www.w3.org/2000/svg" xmlns:xlink="http://www.w3.org/1999/xlink" x="0px" y="0px"
	 width="232.898px" height="68.395px" viewBox="0 0 232.898 68.395" enable-background="new 0 0 232.898 68.395"
	 xml:space="preserve">
<g id="Layer1">
	<path fill-rule="evenodd" clip-rule="evenodd" fill="#1059A5" d="M72.688,12.008c-1.354,2.766-6.731,15.252-8.194,18.741
		c1.274,0.212,2.304,0.21,3.343,0.354c1.256,0.177,1.927-0.656,2.412-1.988c1.268-3.507,2.783-6.924,4.784-10.387
		c1.251,2.956,2.496,5.938,3.654,8.898c0.805,2.061,2.396,5.218,6.839,4.652c-1.093-2.686-2.169-5.356-3.258-8.024
		c-1.443-3.541-2.85-7.097-4.381-10.603c-0.288-0.66-0.196-1.141-0.756-1.682C75.94,11.971,73.876,12.008,72.688,12.008z"/>
	<text transform="matrix(1 0 0 1 88.0537 46.7695)"><tspan x="0" y="0" fill="#0B59A4" font-family="'Philosopher-Bold'" font-size="41.2886">PP</tspan><tspan x="47.646" y="0" fill="#0B59A4" font-family="'Philosopher-Bold'" font-size="40.7269">W</tspan><tspan x="84.545" y="0" fill="#0B59A4" font-family="'Philosopher-Bold'" font-size="41.2886">RK</tspan></text>
	
		<text transform="matrix(1.2817 0 0 1 148.1982 56.0371)" fill="#1059A5" font-family="'Poppins-Regular'" font-size="9.5935" letter-spacing="0.78">SOLUTIONS</text>
	<path fill-rule="evenodd" clip-rule="evenodd" fill="#1059A5" d="M126.589,56.724c-0.079-1.335,0.143-2.777-0.292-3.979
		c-1.345-3.709-3.922-6.454-7.344-8.422c-1.177-0.676-2.305-1.438-3.457-2.164c-0.262-0.13-0.521-0.256-0.784-0.385
		c-0.127-0.05-0.254-0.097-0.386-0.146c-0.174-0.092-0.35-0.184-0.526-0.275c-1.272-0.552-2.546-1.104-3.816-1.661
		c-0.283-0.109-0.566-0.221-0.853-0.333c-0.119,0.03-0.228,0.008-0.321-0.069c-0.588-0.22-1.159-0.486-1.759-0.666
		c-7.199-2.171-14.634-3.535-22.022-4.908c-5.271-0.981-10.646-1.502-16-1.825c-4.972-0.3-9.976-0.065-15.251-0.065
		c0.381,0.585,0.641,1.455,1.283,1.968c0.655,0.525,1.548,0.677,2.365,0.881c1.622,0.404,3.64-0.354,4.968,0.657
		c0.777,0.589,0.173,1.356,0.079,2.041c-0.102,0.256-0.204,0.511-0.305,0.766c-0.034,0.14-0.06,0.278-0.092,0.416
		c-0.081,0.154-0.164,0.308-0.25,0.459l0.039-0.048c-0.155,0.404-0.313,0.808-0.465,1.211c-0.648,1.979-1.297,4.317-2.054,6.642
		c1.525,0,2.938,0.083,4.321-0.059c0.372-0.038,0.809-1.081,0.985-1.555c1.036-2.765,1.956-5.568,3.033-8.315
		c0.192-0.49,0.972-1.111,1.428-1.076c4.185,0.335,8.357,0.754,12.517,1.284c0.537,0.072,1.19,0.81,1.425,1.385
		c0.788,1.94,1.502,3.919,2.071,5.935c0.441,1.555,1.143,2.36,2.885,2.442c0.855,0.038,1.563-0.023,2.6-0.023
		c-1.005-2.811-1.942-5.794-3.031-8.843c3.459,0.754,6.578,1.352,9.649,2.124c7.585,1.908,15.023,4.23,21.674,8.521
		c0.882,0.568,1.7,1.232,2.55,1.854c0.27,0.227,0.542,0.454,0.81,0.682l-0.01-0.01c0.138,0.135,0.28,0.271,0.417,0.402
		c0,0-0.016-0.017-0.016-0.016c0.138,0.137,0.277,0.278,0.416,0.417c0.123,0.124,0.247,0.248,0.367,0.373
		c0.143,0.138,0.284,0.274,0.426,0.414l-0.015-0.022c0.13,0.134,0.254,0.267,0.382,0.4c0.131,0.138,0.259,0.275,0.388,0.417
		c0.274,0.392,0.548,0.785,0.823,1.181c0.135,0.202,0.271,0.404,0.409,0.605c0.115,0.2,0.231,0.396,0.349,0.597
		c0.077,0.105,0.151,0.207,0.227,0.313c0.055,0.158,0.11,0.316,0.162,0.477L126.589,56.724z"/>
	<g display="none">
		<path display="inline" fill-rule="evenodd" clip-rule="evenodd" fill="#0B58A5" d="M363.551,175.928
			c-0.332,73.123-44.771,126.053-105.646,137.281c-68.402,12.614-135.951-33.975-148.507-102.598
			c-1.313-7.197-1.859-14.591-2.091-21.913c-0.432-13.558,8.657-23.55,21.223-23.951c12.366-0.394,22.185,9.516,22.453,22.956
			c0.367,18.248,5.757,34.821,16.766,49.324c15.352,20.223,35.742,31.533,61.2,33.694c43.814,3.72,85.263-28.355,90.209-75.205
			c5.081-48.104-30.595-87.997-74.661-92.491c-3.086-0.313-6.188-0.608-9.287-0.701c-12.749-0.385-21.755-9.629-21.725-22.395
			c0.029-11.727,10.009-21.59,22.305-21.407c32.536,0.485,61.345,11.184,85.408,33.184
			C349.216,117.321,363.305,149.393,363.551,175.928z"/>
		<path display="inline" fill-rule="evenodd" clip-rule="evenodd" fill="#E95525" d="M274.855,225.345
			c2.387,6.315,5.311,11.152,5.734,16.2c0.286,3.411-2.361,7.599-4.779,10.565c-2.861,3.519-6.733,4.213-10.389,0.11
			c-7.596-8.514-15.731-11.691-28.418-10.244c-31.667,3.616-57.784-19.207-62.983-51.825c-4.381-27.493,15.668-56.429,44.365-64.037
			c24.103-6.391,50.61,4.171,64.314,25.622c13.651,21.375,12.011,49.429-4.048,69.073
			C277.113,222.692,275.527,224.535,274.855,225.345z M266.721,183.347c-0.019-18.911-14.811-33.76-33.712-33.833
			c-19.359-0.075-34.531,15.2-34.387,34.619c0.136,18.258,15.837,33.425,34.521,33.349
			C251.734,217.41,266.735,202.158,266.721,183.347z"/>
		<path display="inline" fill-rule="evenodd" clip-rule="evenodd" fill="#E95525" d="M194.479,82.945
			c-0.073,12.186-9.655,21.842-21.681,21.865c-12.13,0.02-22.13-9.742-22.114-21.586c0.019-12.231,10.023-22.285,22.08-22.187
			C184.815,61.137,194.559,70.964,194.479,82.945z"/>
		<path display="inline" fill-rule="evenodd" clip-rule="evenodd" fill="#E95525" d="M152.938,124.936
			c0.077-8.691,6.938-15.365,15.713-15.29c8.468,0.073,15.583,7.397,15.34,15.794c-0.231,8.107-7.491,15.17-15.637,15.213
			C159.959,140.695,152.862,133.459,152.938,124.936z"/>
		<path display="inline" fill-rule="evenodd" clip-rule="evenodd" fill="#E95525" d="M134.103,120.957
			c6.95-0.106,13.21,6.142,13.292,13.255c0.077,7.423-5.512,13.034-13.098,13.151c-7.461,0.114-13.307-5.572-13.312-12.941
			C120.979,127.234,126.988,121.066,134.103,120.957z"/>
		<path display="inline" fill-rule="evenodd" clip-rule="evenodd" fill="#FFFFFF" d="M274.646,190.373
			c0.018,20.573-16.389,37.252-36.721,37.333c-20.436,0.083-37.608-16.507-37.756-36.474c-0.16-21.238,16.435-37.944,37.607-37.862
			C258.447,153.448,274.628,169.688,274.646,190.373z"/>
		<path display="inline" fill-rule="evenodd" clip-rule="evenodd" fill="#E95525" d="M282.078,189.646
			c0,27.288-22.12,49.41-49.409,49.41c-27.286,0-49.408-22.122-49.408-49.41c0-27.285,22.122-49.406,49.408-49.406
			C259.958,140.24,282.078,162.361,282.078,189.646z"/>
		<g display="inline">
			<path fill-rule="evenodd" clip-rule="evenodd" fill="#FFFFFF" d="M234.655,187.097c5.687-0.868,11.391-1.612,17.094-2.27
				c-0.006-6.113-0.004-12.226-0.004-18.343v-0.942H234.67v0.931C234.67,173.348,234.688,180.221,234.655,187.097z"/>
			<path fill-rule="evenodd" clip-rule="evenodd" fill="#FFFFFF" d="M187.83,197.46c1.657-0.464,3.313-0.917,4.976-1.372
				c5.573-1.508,11.166-2.927,16.788-4.216v-4.842c-0.354,0.155-0.629,0.286-0.909,0.411c-1.777,0.788-3.604,0.968-5.453,0.319
				c-3.039-1.061-4.694-4.554-3.75-7.835c0.964-3.334,4.429-5.41,7.753-4.635c2.781,0.637,4.807,3.318,4.824,6.358
				c0.019,3.221,0.036,6.439,0.058,9.653c5.682-1.265,11.385-2.397,17.135-3.35c-0.034-6.12-0.069-12.234-0.1-18.352
				c-0.277-0.44-0.541-0.871-0.8-1.317c-0.204-0.073-0.39-0.202-0.545-0.362c-0.758-0.388-1.437-0.941-2.044-1.576
				c-0.575-0.324-1.133-0.666-1.65-1.065c-0.178-0.095-0.353-0.224-0.523-0.397c-1.168-1.125-2.321-2.327-3.667-3.211
				c-6.239-4.102-13.153-4.938-20.235-3.252c-13.522,3.224-22.015,17.895-15.834,32.746
				C184.827,193.502,186.171,195.613,187.83,197.46z"/>
			<path fill-rule="evenodd" clip-rule="evenodd" fill="#FFFFFF" d="M257.277,184.23c5.689-0.594,11.383-1.094,17.083-1.511
				c0-5.454-0.004-10.914-0.004-16.374v-0.811h-17.075v0.994C257.281,172.428,257.289,178.324,257.277,184.23z"/>
			<path fill-rule="evenodd" clip-rule="evenodd" fill="#FFFFFF" d="M190.489,199.959c4.521,3.593,10.563,5.515,17.394,4.914
				c0.572-0.055,1.137-0.171,1.711-0.257v-9.581C203.191,196.535,196.831,198.214,190.489,199.959z"/>
			<path fill-rule="evenodd" clip-rule="evenodd" fill="#FFFFFF" d="M257.266,187.301c-0.006,0.843-0.006,1.698-0.01,2.547
				c-0.008,1.193-0.206,2.42-0.55,3.558c-0.372,1.232-1.32,1.682-2.597,1.577c-1.09-0.098-1.817-0.73-2.062-1.962
				c-0.173-0.896-0.287-1.827-0.292-2.737c0-0.805,0-1.598-0.001-2.396c-5.724,0.643-11.435,1.404-17.124,2.281
				c-0.046,1.125-0.26,2.264-0.595,3.318c-0.366,1.191-1.373,1.63-2.65,1.492c-1.06-0.122-1.699-0.742-1.959-1.968
				c-0.098-0.457-0.152-0.938-0.154-1.404c-0.003-0.188-0.003-0.375-0.003-0.566c-5.079,0.872-10.135,1.849-15.16,2.957
				c-0.656,0.142-1.316,0.294-1.974,0.445c0.016,2.629,0.03,5.249,0.045,7.883c0.064-0.006,0.125-0.006,0.188-0.006
				c0.504,0,0.882,0.197,1.13,0.496c0.631,0.339,1.174,0.847,1.527,1.462c0.167,0.122,0.322,0.297,0.476,0.518
				c4.34,6.1,11.511,7.898,17.498,6.638c3.446-0.73,6.303-2.589,8.928-4.846c0.409-0.351,0.814-0.712,1.307-1.15
				c0.236,0.276,0.412,0.509,0.609,0.725c0.221,0.218,0.451,0.44,0.688,0.648c5.512,4.929,11.786,6.421,18.731,3.737
				c6.756-2.601,11.072-9.431,11.084-17.006c0.009-2.584,0.009-5.167,0.009-7.747C268.66,186.214,262.964,186.709,257.266,187.301z"
				/>
		</g>
		<g display="inline">
			<rect id="XMLID_8_" x="276.05" y="182.271" fill="#FFFFFF" width="3.689" height="3.555"/>
			<rect id="XMLID_7_" x="281.316" y="164.571" fill="#FFFFFF" width="5.528" height="5.124"/>
			<rect id="XMLID_6_" x="276.05" y="170.746" fill="#FFFFFF" width="5.131" height="5.262"/>
			<rect id="XMLID_5_" x="281.316" y="176.871" fill="#FFFFFF" width="3.68" height="3.695"/>
		</g>
		<path display="inline" fill-rule="evenodd" clip-rule="evenodd" fill="#E95525" d="M125.563,93.426
			c4.716-0.072,8.967,4.191,9.021,9.047c0.053,5.065-3.74,8.894-8.889,8.973c-5.062,0.081-9.03-3.799-9.033-8.83
			C116.656,97.71,120.734,93.5,125.563,93.426z"/>
	</g>
	
		<text transform="matrix(1.2817 0 0 1 131.4629 56.0371)" fill="#1059A5" font-family="'Poppins-Regular'" font-size="9.5935" letter-spacing="0.78">IT</text>
</g>
<g id="Layer_2">
	<g>
		<path fill-rule="evenodd" clip-rule="evenodd" fill="#1259A5" d="M27.846,55.471c-6.157-0.1-11.522-2.225-16.047-6.396
			c-3.752-3.462-6.113-7.729-7.09-12.744c-0.289-1.484-0.416-2.989-0.401-4.5c0.019-2.004,1.31-3.624,3.153-3.999
			c2.262-0.462,4.367,0.934,4.782,3.216c0.128,0.708,0.125,1.438,0.188,2.157c0.266,3.094,1.387,5.845,3.335,8.258
			c1.977,2.454,4.421,4.262,7.469,5.125c6.045,1.71,11.37,0.389,15.829-4.061c2.359-2.354,3.724-5.261,4.159-8.57
			c0.674-5.12-0.818-9.548-4.462-13.197c-2.521-2.523-5.603-3.972-9.161-4.353c-0.812-0.086-1.638-0.08-2.436-0.227
			c-2.184-0.398-3.456-2.124-3.302-4.394c0.128-1.907,1.813-3.503,3.867-3.589c1.438-0.059,2.868,0.106,4.284,0.353
			c3.755,0.646,7.165,2.102,10.154,4.464c3.933,3.108,6.862,6.953,8.459,11.747c0.758,2.27,0.971,4.594,0.803,6.972
			c-0.221,3.093-0.836,6.091-1.999,8.967c-1.228,3.035-2.966,5.743-5.286,8.054c-3.285,3.275-7.218,5.356-11.77,6.268
			C30.881,55.321,29.374,55.48,27.846,55.471z"/>
		<path fill-rule="evenodd" clip-rule="evenodd" fill="#EA5727" d="M38.313,31.058c-0.04,2.876-0.93,5.3-2.746,7.355
			c-0.33,0.374-0.375,0.665-0.17,1.108c0.299,0.643,0.527,1.32,0.757,1.992c0.148,0.43,0.084,0.869-0.137,1.26
			c-0.224,0.395-0.463,0.787-0.747,1.136c-0.504,0.614-1.173,0.614-1.751,0.066c-0.449-0.428-0.884-0.878-1.388-1.232
			c-1.102-0.775-2.366-0.938-3.674-0.786c-3.095,0.362-5.844-0.405-8.176-2.493c-1.976-1.767-3.129-4.009-3.615-6.592
			c-0.665-3.525,0.461-6.524,2.846-9.095c1.658-1.785,3.704-2.922,6.12-3.334c2.74-0.466,5.293,0.084,7.617,1.575
			c2.904,1.861,4.555,4.545,4.991,7.968C38.291,30.386,38.297,30.789,38.313,31.058z M23.172,31.842
			c-0.198,0.057-0.361,0.115-0.527,0.153c-0.634,0.145-1.197-0.212-1.36-0.851c-0.152-0.593,0.234-1.226,0.861-1.413
			c0.563-0.17,1.143,0.145,1.339,0.743c0.056,0.171,0.065,0.364,0.066,0.546c0.01,0.543,0.004,1.084,0.004,1.641
			c1.118-0.22,2.161-0.424,3.215-0.631c0-1.113,0.006-2.208-0.007-3.302c-0.003-0.119-0.079-0.271-0.171-0.345
			c-0.516-0.426-1.026-0.864-1.578-1.242c-1.021-0.699-2.17-0.867-3.375-0.658c-1.04,0.183-1.928,0.651-2.613,1.468
			c-0.836,0.995-1.15,2.147-0.991,3.429c0.102,0.822,0.396,1.576,0.923,2.226c0.066,0.084,0.227,0.167,0.317,0.146
			c1.24-0.305,2.477-0.626,3.71-0.95c0.073-0.021,0.171-0.12,0.178-0.19C23.185,32.369,23.172,32.121,23.172,31.842z M30.899,31.997
			c-0.068,0-0.13-0.008-0.188,0.002c-0.838,0.108-1.672,0.244-2.516,0.322c-0.361,0.034-0.538,0.16-0.542,0.52
			c-0.002,0.063-0.007,0.147-0.044,0.179c-0.126,0.098-0.265,0.246-0.402,0.248c-0.12,0.004-0.277-0.143-0.355-0.263
			c-0.073-0.12-0.07-0.289-0.109-0.462c-0.994,0.204-1.973,0.405-2.953,0.599c-0.156,0.032-0.232,0.088-0.224,0.26
			c0.022,0.382,0.024,0.763,0.041,1.144c0.001,0.052,0.033,0.116,0.07,0.151c0.205,0.195,0.442,0.365,0.622,0.581
			c0.954,1.153,2.553,1.512,3.884,0.821c0.408-0.209,0.772-0.499,1.162-0.755c0.132,0.109,0.271,0.231,0.413,0.35
			c1.695,1.404,4.198,0.779,5.055-1.25c0.383-0.912,0.244-1.863,0.285-2.858c-1.088,0.097-2.139,0.19-3.17,0.28
			c-0.049,0.396-0.078,0.744-0.132,1.088c-0.036,0.218-0.181,0.348-0.413,0.335c-0.23-0.009-0.369-0.132-0.395-0.357
			C30.949,32.634,30.932,32.338,30.899,31.997z M30.909,31.466c0-1.212,0-2.385,0-3.561c-1.066,0-2.114,0-3.179,0
			c0,1.332,0,2.641,0,3.979C28.799,31.743,29.847,31.604,30.909,31.466z M35.085,27.884c-1.077,0-2.126,0-3.174,0
			c0,1.169,0,2.312,0,3.467c1.071-0.093,2.12-0.185,3.174-0.279C35.085,29.989,35.085,28.948,35.085,27.884z M19.595,34.197
			c0.06,0.073,0.078,0.109,0.106,0.132c0.985,0.74,2.107,0.938,3.304,0.811c0.059-0.008,0.157-0.092,0.157-0.142
			c0.013-0.562,0.01-1.122,0.01-1.726C21.95,33.589,20.789,33.888,19.595,34.197z M37.368,28.684c0-0.338,0-0.65,0-0.967
			c-0.351,0-0.685,0-1.025,0c0,0.33,0,0.642,0,0.967C36.688,28.684,37.013,28.684,37.368,28.684z M35.372,28.831
			c0,0.336,0,0.666,0,1.003c0.329,0,0.641,0,0.944,0c0-0.35,0-0.675,0-1.003C35.992,28.831,35.697,28.831,35.372,28.831z
			 M36.352,29.957c0,0.262,0,0.491,0,0.718c0.238,0,0.452,0,0.684,0c0-0.243,0-0.474,0-0.718
			C36.799,29.957,36.585,29.957,36.352,29.957z M36.055,31.639c0-0.238,0-0.457,0-0.673c-0.245,0-0.466,0-0.689,0
			c0,0.233,0,0.445,0,0.673C35.605,31.639,35.824,31.639,36.055,31.639z"/>
		<path fill-rule="evenodd" clip-rule="evenodd" fill="#EA5627" d="M16.317,8.648c2.216-0.013,4.032,1.776,4.058,3.993
			c0.024,2.235-1.772,4.073-3.995,4.082c-2.235,0.009-4.083-1.771-4.099-3.954C12.265,10.519,14.086,8.656,16.317,8.648z"/>
		<path fill-rule="evenodd" clip-rule="evenodd" fill="#EA5727" d="M15.498,23.313c-1.542-0.007-2.805-1.321-2.8-2.912
			c0.008-1.577,1.285-2.817,2.892-2.808c1.544,0.011,2.854,1.322,2.844,2.847C18.426,21.998,17.075,23.32,15.498,23.313z"/>
		<path fill-rule="evenodd" clip-rule="evenodd" fill="#EA5727" d="M9.225,24.553c-1.361-0.007-2.414-1.044-2.417-2.387
			c-0.004-1.328,1.148-2.494,2.463-2.494c1.303,0.002,2.441,1.187,2.427,2.526C11.684,23.552,10.622,24.561,9.225,24.553z"/>
		<path fill-rule="evenodd" clip-rule="evenodd" fill="#EA5728" d="M7.69,14.615c0.892,0.002,1.653,0.791,1.649,1.707
			c-0.005,0.92-0.733,1.629-1.675,1.631c-0.916,0.002-1.654-0.736-1.649-1.657C6.019,15.388,6.789,14.612,7.69,14.615z"/>
	</g>
</g>
</svg>
